<svg width="24" height="24" viewBox="0 0 24 24" fill="none" xmlns="http://www.w3.org/2000/svg">
<path d="M15.0001 7.00045L8.50007 13.5005C8.10224 13.8983 7.87875 14.4378 7.87875 15.0005C7.87875 15.5631 8.10224 16.1026 8.50007 16.5005C8.89789 16.8983 9.43746 17.1218 10.0001 17.1218C10.5627 17.1218 11.1022 16.8983 11.5001 16.5005L18.0001 10.0005C18.7957 9.2048 19.2427 8.12567 19.2427 7.00045C19.2427 5.87523 18.7957 4.7961 18.0001 4.00045C17.2044 3.2048 16.1253 2.75781 15.0001 2.75781C13.8749 2.75781 12.7957 3.2048 12.0001 4.00045L5.50007 10.5005C4.3066 11.6939 3.63611 13.3126 3.63611 15.0005C3.63611 16.6883 4.3066 18.307 5.50007 19.5005C6.69354 20.6939 8.31224 21.3644 10.0001 21.3644C11.6879 21.3644 13.3066 20.6939 14.5001 19.5005L21.0001 13.0005" stroke="#898989" stroke-linecap="round" stroke-linejoin="round"/>
</svg>
