<svg width="32" height="32" viewBox="0 0 32 32" fill="none" xmlns="http://www.w3.org/2000/svg">
<path d="M7.99992 28C9.47268 28 10.6666 26.8061 10.6666 25.3333C10.6666 23.8606 9.47268 22.6667 7.99992 22.6667C6.52716 22.6667 5.33325 23.8606 5.33325 25.3333C5.33325 26.8061 6.52716 28 7.99992 28Z" stroke="#0B0B0B" stroke-opacity="0.9" stroke-linecap="round" stroke-linejoin="round"/>
<path d="M22.6667 28C24.1394 28 25.3333 26.8061 25.3333 25.3333C25.3333 23.8606 24.1394 22.6667 22.6667 22.6667C21.1939 22.6667 20 23.8606 20 25.3333C20 26.8061 21.1939 28 22.6667 28Z" stroke="#0B0B0B" stroke-opacity="0.9" stroke-linecap="round" stroke-linejoin="round"/>
<path d="M22.6666 22.6667H7.99992V4H5.33325" stroke="#0B0B0B" stroke-opacity="0.9" stroke-linecap="round" stroke-linejoin="round"/>
<path d="M8 6.66666L26.6667 8L25.3333 17.3333H8" stroke="#0B0B0B" stroke-opacity="0.9" stroke-linecap="round" stroke-linejoin="round"/>
</svg>
