<svg width="36" height="36" viewBox="0 0 36 36" fill="none" xmlns="http://www.w3.org/2000/svg">
<path d="M18.0059 0C10.491 0 8.29324 0.0077545 7.86603 0.0432037C6.32386 0.17143 5.36422 0.414312 4.31876 0.934971C3.51306 1.33516 2.87764 1.79904 2.25053 2.44931C1.10844 3.6352 0.41626 5.09415 0.165692 6.82839C0.0438687 7.67031 0.00842918 7.84202 0.00123054 12.1424C-0.00153817 13.5759 0.00123054 15.4625 0.00123054 17.9929C0.00123054 25.5037 0.00953667 27.6999 0.0455299 28.1264C0.170122 29.6275 0.405462 30.5718 0.90383 31.6049C1.85627 33.5823 3.67531 35.0667 5.81829 35.6206C6.56031 35.8117 7.37984 35.9169 8.43195 35.9668C8.87772 35.9862 13.4212 36 17.9674 36C22.5136 36 27.0598 35.9945 27.4945 35.9723C28.7128 35.915 29.4202 35.82 30.2023 35.6178C31.2649 35.3452 32.2552 34.8439 33.104 34.1489C33.9528 33.4539 34.6398 32.5819 35.1168 31.5938C35.6055 30.5857 35.8533 29.6053 35.9654 28.1826C35.9898 27.8725 36 22.927 36 17.9882C36 13.0486 35.9889 8.11232 35.9646 7.80214C35.851 6.35648 35.6032 5.38439 35.0988 4.35692C34.6849 3.51584 34.2253 2.88772 33.558 2.24548C32.3675 1.10779 30.9111 0.41542 29.1754 0.16506C28.3345 0.0434806 28.167 0.00747756 23.8645 0H18.0059Z" fill="url(#paint0_radial)"/>
<path d="M18.0059 0C10.491 0 8.29324 0.0077545 7.86603 0.0432037C6.32386 0.17143 5.36422 0.414312 4.31876 0.934971C3.51306 1.33516 2.87764 1.79904 2.25053 2.44931C1.10844 3.6352 0.41626 5.09415 0.165692 6.82839C0.0438687 7.67031 0.00842918 7.84202 0.00123054 12.1424C-0.00153817 13.5759 0.00123054 15.4625 0.00123054 17.9929C0.00123054 25.5037 0.00953667 27.6999 0.0455299 28.1264C0.170122 29.6275 0.405462 30.5718 0.90383 31.6049C1.85627 33.5823 3.67531 35.0667 5.81829 35.6206C6.56031 35.8117 7.37984 35.9169 8.43195 35.9668C8.87772 35.9862 13.4212 36 17.9674 36C22.5136 36 27.0598 35.9945 27.4945 35.9723C28.7128 35.915 29.4202 35.82 30.2023 35.6178C31.2649 35.3452 32.2552 34.8439 33.104 34.1489C33.9528 33.4539 34.6398 32.5819 35.1168 31.5938C35.6055 30.5857 35.8533 29.6053 35.9654 28.1826C35.9898 27.8725 36 22.927 36 17.9882C36 13.0486 35.9889 8.11232 35.9646 7.80214C35.851 6.35648 35.6032 5.38439 35.0988 4.35692C34.6849 3.51584 34.2253 2.88772 33.558 2.24548C32.3675 1.10779 30.9111 0.41542 29.1754 0.16506C28.3345 0.0434806 28.167 0.00747756 23.8645 0H18.0059Z" fill="url(#paint1_radial)"/>
<path d="M18.0009 5.25C14.5382 5.25 14.1036 5.26559 12.7436 5.3293C11.3863 5.39328 10.4598 5.61449 9.64906 5.93906C8.81047 6.2743 8.09912 6.72273 7.39043 7.45254C6.6812 8.18207 6.24557 8.91434 5.91885 9.7773C5.60275 10.6121 5.3876 11.5661 5.3265 12.9629C5.26594 14.3629 5.25 14.8105 5.25 18.375C5.25 21.9395 5.26541 22.3855 5.32703 23.7855C5.38945 25.1828 5.60435 26.1365 5.91938 26.9711C6.24531 27.8343 6.68094 28.5666 7.3899 29.2961C8.09833 30.0262 8.80968 30.4757 9.64773 30.8109C10.459 31.1355 11.3857 31.3567 12.7428 31.4207C14.1028 31.4844 14.5371 31.5 17.9996 31.5C21.4626 31.5 21.8958 31.4844 23.2558 31.4207C24.6132 31.3567 25.5408 31.1355 26.352 30.8109C27.1903 30.4757 27.9006 30.0262 28.609 29.2961C29.3183 28.5666 29.7539 27.8343 30.0806 26.9713C30.3941 26.1365 30.6092 25.1825 30.673 23.7858C30.7341 22.3858 30.75 21.9395 30.75 18.375C30.75 14.8105 30.7341 14.3631 30.673 12.9631C30.6092 11.5659 30.3941 10.6121 30.0806 9.77758C29.7539 8.91434 29.3183 8.18207 28.609 7.45254C27.8998 6.72246 27.1906 6.27402 26.3512 5.93906C25.5384 5.61449 24.6113 5.39328 23.254 5.3293C21.894 5.26559 21.461 5.25 17.9972 5.25H18.0009ZM16.8571 7.61523C17.1966 7.61469 17.5754 7.61523 18.0009 7.61523C21.4052 7.61523 21.8087 7.62781 23.153 7.6907C24.3962 7.74922 25.0709 7.96305 25.5203 8.1427C26.1153 8.38059 26.5395 8.66496 26.9855 9.12434C27.4318 9.58371 27.708 10.0212 27.9397 10.6337C28.1142 11.0958 28.3222 11.7904 28.3787 13.07C28.4398 14.4536 28.4531 14.8693 28.4531 18.372C28.4531 21.8747 28.4398 22.2904 28.3787 23.6739C28.3219 24.9536 28.1142 25.6482 27.9397 26.1103C27.7086 26.7228 27.4318 27.1589 26.9855 27.618C26.5393 28.0774 26.1156 28.3618 25.5203 28.5996C25.0714 28.7801 24.3962 28.9934 23.153 29.0519C21.809 29.1148 21.4052 29.1285 18.0009 29.1285C14.5964 29.1285 14.1929 29.1148 12.8488 29.0519C11.6057 28.9929 10.931 28.779 10.4813 28.5994C9.88627 28.3615 9.46126 28.0771 9.01501 27.6177C8.56875 27.1584 8.2925 26.722 8.06087 26.1092C7.88636 25.6471 7.67837 24.9525 7.62179 23.6729C7.5607 22.2893 7.54848 21.8736 7.54848 18.3687C7.54848 14.8638 7.5607 14.4504 7.62179 13.0668C7.67863 11.7871 7.88636 11.0925 8.06087 10.6299C8.29197 10.0174 8.56875 9.57988 9.01501 9.12051C9.46126 8.66113 9.88627 8.37676 10.4813 8.13832C10.9307 7.95785 11.6057 7.74457 12.8488 7.68578C14.025 7.63109 14.4808 7.61469 16.8571 7.61195V7.61523ZM24.8068 9.79453C24.5042 9.79453 24.2084 9.88692 23.9568 10.06C23.7051 10.2331 23.509 10.4791 23.3932 10.7669C23.2775 11.0548 23.2472 11.3715 23.3063 11.677C23.3653 11.9825 23.5111 12.2632 23.7251 12.4834C23.9392 12.7037 24.2118 12.8536 24.5087 12.9143C24.8055 12.975 25.1132 12.9438 25.3927 12.8245C25.6723 12.7052 25.9112 12.5032 26.0793 12.2442C26.2473 11.9851 26.337 11.6805 26.3369 11.369C26.3369 10.4995 25.6515 9.79398 24.8068 9.79398V9.79453ZM18.0009 11.6348C14.3849 11.6348 11.4532 14.6527 11.4532 18.375C11.4532 22.0973 14.3849 25.1139 18.0009 25.1139C21.6169 25.1139 24.5479 22.0973 24.5479 18.375C24.5479 14.6527 21.6167 11.6348 18.0007 11.6348H18.0009ZM18.0009 14C20.348 14 22.251 15.9586 22.251 18.375C22.251 20.7911 20.348 22.75 18.0009 22.75C15.6536 22.75 13.7509 20.7911 13.7509 18.375C13.7509 15.9586 15.6536 14 18.0009 14Z" fill="white"/>
<defs>
<radialGradient id="paint0_radial" cx="0" cy="0" r="1" gradientUnits="userSpaceOnUse" gradientTransform="translate(9.56255 38.7728) rotate(-90) scale(35.6787 33.184)">
<stop stop-color="#FFDD55"/>
<stop offset="0.1" stop-color="#FFDD55"/>
<stop offset="0.5" stop-color="#FF543E"/>
<stop offset="1" stop-color="#C837AB"/>
</radialGradient>
<radialGradient id="paint1_radial" cx="0" cy="0" r="1" gradientUnits="userSpaceOnUse" gradientTransform="translate(-6.03019 2.59338) rotate(78.6806) scale(15.9485 65.7404)">
<stop stop-color="#3771C8"/>
<stop offset="0.128" stop-color="#3771C8"/>
<stop offset="1" stop-color="#6600FF" stop-opacity="0"/>
</radialGradient>
</defs>
</svg>
