<svg width="44" height="44" viewBox="0 0 44 44" fill="none" xmlns="http://www.w3.org/2000/svg">
<path d="M22 25.667C25.0376 25.667 27.5 23.2046 27.5 20.167C27.5 17.1294 25.0376 14.667 22 14.667C18.9624 14.667 16.5 17.1294 16.5 20.167C16.5 23.2046 18.9624 25.667 22 25.667Z" stroke="#4E4E4E" stroke-linecap="round" stroke-linejoin="round"/>
<path d="M32.3712 30.5383L24.5923 38.3171C23.9048 39.0039 22.9727 39.3897 22.0009 39.3897C21.0291 39.3897 20.097 39.0039 19.4095 38.3171L11.6288 30.5383C9.57773 28.4871 8.18094 25.8737 7.61508 23.0287C7.04922 20.1837 7.33972 17.2347 8.44983 14.5548C9.55993 11.8748 11.4398 9.58426 13.8517 7.9727C16.2636 6.36114 19.0992 5.50098 22 5.50098C24.9007 5.50098 27.7364 6.36114 30.1483 7.9727C32.5602 9.58426 34.44 11.8748 35.5501 14.5548C36.6603 17.2347 36.9507 20.1837 36.3849 23.0287C35.819 25.8737 34.4222 28.4871 32.3712 30.5383V30.5383Z" stroke="#4E4E4E" stroke-linecap="round" stroke-linejoin="round"/>
</svg>
