<svg width="36" height="36" viewBox="0 0 36 36" fill="none" xmlns="http://www.w3.org/2000/svg">
<path d="M0 17.25C0 9.11827 0 5.0524 2.5262 2.5262C5.0524 0 9.11827 0 17.25 0H18.75C26.8817 0 30.9476 0 33.4738 2.5262C36 5.0524 36 9.11827 36 17.25V18.75C36 26.8817 36 30.9476 33.4738 33.4738C30.9476 36 26.8817 36 18.75 36H17.25C9.11827 36 5.0524 36 2.5262 33.4738C0 30.9476 0 26.8817 0 18.75L0 17.25Z" fill="#2787F5"/>
<path fill-rule="evenodd" clip-rule="evenodd" d="M9.75068 11.25H7.12508C6.3749 11.25 6.22485 11.6031 6.22485 11.9924C6.22485 12.6877 7.115 16.1361 10.3695 20.6969C12.5392 23.8116 15.596 25.5 18.3777 25.5C20.0467 25.5 20.2532 25.125 20.2532 24.4791V22.125C20.2532 21.375 20.4113 21.2253 20.9397 21.2253C21.3292 21.2253 21.9968 21.42 23.5545 22.9217C25.3348 24.7015 25.6283 25.5 26.6296 25.5H29.2552C30.0054 25.5 30.3805 25.125 30.1641 24.385C29.9273 23.6474 29.0774 22.5772 27.9495 21.3088C27.3375 20.5857 26.4196 19.807 26.1414 19.4177C25.752 18.9171 25.8632 18.6946 26.1414 18.2497C26.1414 18.2497 29.3403 13.7444 29.6741 12.215C29.841 11.6587 29.6741 11.25 28.8801 11.25H26.2545C25.5869 11.25 25.2791 11.6031 25.1122 11.9924C25.1122 11.9924 23.777 15.2461 21.8855 17.3597C21.2735 17.9715 20.9954 18.1662 20.6615 18.1662C20.4947 18.1662 20.2531 17.9715 20.2531 17.4154V12.215C20.2531 11.5475 20.0594 11.25 19.5029 11.25H15.377C14.9598 11.25 14.7089 11.5597 14.7089 11.8534C14.7089 12.4861 15.6546 12.632 15.7521 14.4118V18.2775C15.7521 19.125 15.599 19.2787 15.2652 19.2787C14.3751 19.2787 12.2099 16.0103 10.9258 12.2705C10.6742 11.5436 10.4217 11.25 9.75068 11.25Z" fill="white"/>
</svg>
