<svg width="194" height="40" viewBox="0 0 194 40" fill="none" xmlns="http://www.w3.org/2000/svg">
<path d="M16.491 0.625C16.5217 0.625 16.537 0.671 16.537 0.763C16.537 0.854999 16.5217 0.900999 16.491 0.900999C15.8777 0.900999 15.4023 1.12333 15.065 1.568C14.7277 1.99733 14.559 2.61833 14.559 3.431V15.322C14.559 15.368 14.5207 15.3987 14.444 15.414C14.3673 15.4293 14.3137 15.4217 14.283 15.391L3.496 2.856V12.217C3.496 13.0297 3.657 13.6507 3.979 14.08C4.301 14.5093 4.76867 14.724 5.382 14.724C5.41267 14.724 5.428 14.77 5.428 14.862C5.428 14.954 5.41267 15 5.382 15C4.968 15 4.65367 14.9923 4.439 14.977L3.22 14.954L1.863 14.977C1.61767 14.9923 1.265 15 0.805 15C0.759 15 0.736 14.954 0.736 14.862C0.736 14.77 0.759 14.724 0.805 14.724C1.46433 14.724 1.97033 14.5093 2.323 14.08C2.691 13.6507 2.875 13.0297 2.875 12.217V2.143C2.44567 1.683 2.05467 1.361 1.702 1.177C1.36467 0.992999 1.012 0.900999 0.644 0.900999C0.613333 0.900999 0.598 0.854999 0.598 0.763C0.598 0.671 0.613333 0.625 0.644 0.625L1.564 0.648C1.76333 0.663333 2.047 0.670999 2.415 0.670999L3.887 0.648C4.071 0.632667 4.29333 0.625 4.554 0.625C4.67667 0.625 4.76867 0.655666 4.83 0.716999C4.89133 0.778332 4.98333 0.900999 5.106 1.085L5.658 1.821L13.938 11.573V3.431C13.938 2.61833 13.777 1.99733 13.455 1.568C13.133 1.12333 12.673 0.900999 12.075 0.900999C12.0443 0.900999 12.029 0.854999 12.029 0.763C12.029 0.671 12.0443 0.625 12.075 0.625L13.018 0.648C13.5087 0.678666 13.915 0.693999 14.237 0.693999C14.5437 0.693999 14.9577 0.678666 15.479 0.648L16.491 0.625ZM33.1987 14.724C33.2754 14.724 33.3137 14.77 33.3137 14.862C33.3137 14.954 33.2754 15 33.1987 15C32.9074 15 32.4397 14.9847 31.7957 14.954C31.1517 14.9233 30.684 14.908 30.3927 14.908C30.0094 14.908 29.557 14.9233 29.0357 14.954C28.5144 14.9847 28.108 15 27.8167 15C27.7554 15 27.7247 14.954 27.7247 14.862C27.7247 14.77 27.7554 14.724 27.8167 14.724C28.2614 14.724 28.5834 14.678 28.7827 14.586C28.9974 14.4787 29.1047 14.31 29.1047 14.08C29.1047 13.85 28.9744 13.459 28.7137 12.907L26.9657 9.365H21.3997L20.2957 11.849C20.0964 12.309 19.9967 12.723 19.9967 13.091C19.9967 13.6277 20.1884 14.034 20.5717 14.31C20.955 14.586 21.4917 14.724 22.1817 14.724C22.2584 14.724 22.2967 14.77 22.2967 14.862C22.2967 14.954 22.2584 15 22.1817 15C21.9057 15 21.507 14.9847 20.9857 14.954C20.403 14.9233 19.897 14.908 19.4677 14.908C19.0537 14.908 18.5707 14.9233 18.0187 14.954C17.528 14.9847 17.1217 15 16.7997 15C16.723 15 16.6847 14.954 16.6847 14.862C16.6847 14.77 16.723 14.724 16.7997 14.724C17.229 14.724 17.5894 14.6397 17.8807 14.471C18.172 14.3023 18.4557 14.0033 18.7317 13.574C19.0077 13.1293 19.3374 12.4777 19.7207 11.619L24.6657 0.486999C24.6964 0.441 24.7654 0.418 24.8727 0.418C24.98 0.418 25.0414 0.441 25.0567 0.486999L30.6917 11.849C31.2284 12.953 31.673 13.712 32.0257 14.126C32.3937 14.5247 32.7847 14.724 33.1987 14.724ZM21.6527 8.79H26.6897L24.0447 3.431L21.6527 8.79ZM38.2113 13.137C38.2113 13.6123 38.2496 13.9573 38.3263 14.172C38.4029 14.3867 38.5563 14.5323 38.7863 14.609C39.0316 14.6857 39.4149 14.724 39.9363 14.724C39.9823 14.724 40.0053 14.77 40.0053 14.862C40.0053 14.954 39.9823 15 39.9363 15C39.4456 15 39.0546 14.9923 38.7633 14.977L37.0613 14.954L35.4053 14.977C35.1139 14.9923 34.7153 15 34.2093 15C34.1633 15 34.1403 14.954 34.1403 14.862C34.1403 14.77 34.1633 14.724 34.2093 14.724C34.7306 14.724 35.1063 14.6857 35.3363 14.609C35.5816 14.5323 35.7503 14.3867 35.8423 14.172C35.9343 13.942 35.9803 13.597 35.9803 13.137V2.488C35.9803 2.028 35.9343 1.69067 35.8423 1.476C35.7503 1.26133 35.5816 1.11567 35.3363 1.039C35.1063 0.946999 34.7306 0.900999 34.2093 0.900999C34.1633 0.900999 34.1403 0.854999 34.1403 0.763C34.1403 0.671 34.1633 0.625 34.2093 0.625L35.4053 0.648C36.0799 0.678666 36.6319 0.693999 37.0613 0.693999C37.5366 0.693999 38.1116 0.678666 38.7863 0.648L39.9363 0.625C39.9823 0.625 40.0053 0.671 40.0053 0.763C40.0053 0.854999 39.9823 0.900999 39.9363 0.900999C39.4303 0.900999 39.0546 0.946999 38.8093 1.039C38.5793 1.131 38.4183 1.292 38.3263 1.522C38.2496 1.73667 38.2113 2.074 38.2113 2.534V13.137ZM45.6832 13.045C45.6832 13.459 45.7139 13.758 45.7752 13.942C45.8519 14.126 45.9899 14.2487 46.1892 14.31C46.3885 14.3713 46.7105 14.402 47.1552 14.402H48.5352C49.6239 14.402 50.5439 14.103 51.2952 13.505C52.0465 12.8917 52.5449 12.0713 52.7902 11.044C52.8055 10.998 52.8515 10.9827 52.9282 10.998C53.0049 10.998 53.0432 11.021 53.0432 11.067C52.9052 12.5083 52.8362 13.7043 52.8362 14.655C52.8362 14.7777 52.8132 14.8697 52.7672 14.931C52.7212 14.977 52.6292 15 52.4912 15H41.7272C41.6965 15 41.6812 14.954 41.6812 14.862C41.6812 14.77 41.6965 14.724 41.7272 14.724C42.2485 14.724 42.6242 14.6857 42.8542 14.609C43.0995 14.5323 43.2605 14.3867 43.3372 14.172C43.4292 13.942 43.4752 13.597 43.4752 13.137V2.488C43.4752 2.028 43.4292 1.69067 43.3372 1.476C43.2605 1.26133 43.0995 1.11567 42.8542 1.039C42.6089 0.946999 42.2332 0.900999 41.7272 0.900999C41.6965 0.900999 41.6812 0.854999 41.6812 0.763C41.6812 0.671 41.6965 0.625 41.7272 0.625L42.9002 0.648C43.5749 0.678666 44.1269 0.693999 44.5562 0.693999C45.0162 0.693999 45.5835 0.678666 46.2582 0.648L47.4082 0.625C47.4542 0.625 47.4772 0.671 47.4772 0.763C47.4772 0.854999 47.4542 0.900999 47.4082 0.900999C46.9022 0.900999 46.5265 0.946999 46.2812 1.039C46.0512 1.11567 45.8902 1.269 45.7982 1.499C45.7215 1.71367 45.6832 2.051 45.6832 2.511V13.045Z" fill="white"/>
<line x1="61" y1="14.5" x2="194" y2="14.5" stroke="white"/>
<line x1="-4.37114e-08" y1="38.5" x2="23" y2="38.5" stroke="white"/>
<path d="M34.784 37.045C34.784 37.5357 34.8377 37.896 34.945 38.126C35.0677 38.3407 35.29 38.494 35.612 38.586C35.9493 38.678 36.4707 38.724 37.176 38.724C37.222 38.724 37.245 38.77 37.245 38.862C37.245 38.954 37.222 39 37.176 39C36.5473 39 36.0567 38.9923 35.704 38.977L33.703 38.954L32.047 38.977C31.7557 38.9923 31.357 39 30.851 39C30.805 39 30.782 38.954 30.782 38.862C30.782 38.77 30.805 38.724 30.851 38.724C31.3723 38.724 31.748 38.6857 31.978 38.609C32.208 38.5323 32.3613 38.3867 32.438 38.172C32.53 37.9573 32.576 37.6123 32.576 37.137V26.488C32.576 26.028 32.53 25.6907 32.438 25.476C32.3613 25.2613 32.2003 25.1157 31.955 25.039C31.725 24.947 31.357 24.901 30.851 24.901C30.805 24.901 30.782 24.855 30.782 24.763C30.782 24.671 30.805 24.625 30.851 24.625L32.047 24.648C32.7217 24.6787 33.266 24.694 33.68 24.694C34.0327 24.694 34.462 24.671 34.968 24.625C35.152 24.6097 35.3973 24.5943 35.704 24.579C36.026 24.5637 36.4017 24.556 36.831 24.556C38.349 24.556 39.545 24.878 40.419 25.522C41.3083 26.166 41.753 27.155 41.753 28.489C41.753 29.455 41.5 30.2753 40.994 30.95C40.5033 31.6247 39.867 32.1307 39.085 32.468C38.3183 32.8053 37.5287 32.974 36.716 32.974C36.2867 32.974 35.9263 32.9357 35.635 32.859C35.589 32.859 35.566 32.8207 35.566 32.744C35.566 32.698 35.5737 32.652 35.589 32.606C35.6197 32.56 35.6503 32.5447 35.681 32.56C35.9263 32.6213 36.1947 32.652 36.486 32.652C37.2833 32.652 37.958 32.3223 38.51 31.663C39.062 31.0037 39.338 30.0607 39.338 28.834C39.338 27.6227 39.0543 26.6873 38.487 26.028C37.9197 25.3533 37.1377 25.016 36.141 25.016C35.773 25.016 35.4893 25.0543 35.29 25.131C35.106 25.2077 34.9757 25.3533 34.899 25.568C34.8223 25.7673 34.784 26.0893 34.784 26.534V37.045ZM58.7225 38.724C58.7685 38.724 58.7915 38.77 58.7915 38.862C58.7915 38.954 58.7685 39 58.7225 39H55.0195C54.6668 39 54.0075 38.3867 53.0415 37.16C52.0908 35.9333 50.9332 34.216 49.5685 32.008C49.2312 32.0387 48.9705 32.054 48.7865 32.054C48.4492 32.054 48.0505 32.0387 47.5905 32.008V37.137C47.5905 37.6123 47.6288 37.9573 47.7055 38.172C47.7975 38.3867 47.9585 38.5323 48.1885 38.609C48.4338 38.6857 48.8172 38.724 49.3385 38.724C49.3692 38.724 49.3845 38.77 49.3845 38.862C49.3845 38.954 49.3692 39 49.3385 39C48.8325 39 48.4415 38.9923 48.1655 38.977L46.4635 38.954L44.8075 38.977C44.5162 38.9923 44.1175 39 43.6115 39C43.5655 39 43.5425 38.954 43.5425 38.862C43.5425 38.77 43.5655 38.724 43.6115 38.724C44.1328 38.724 44.5085 38.6857 44.7385 38.609C44.9838 38.5323 45.1525 38.3867 45.2445 38.172C45.3365 37.942 45.3825 37.597 45.3825 37.137V26.488C45.3825 26.028 45.3365 25.6907 45.2445 25.476C45.1678 25.2613 45.0068 25.1157 44.7615 25.039C44.5162 24.947 44.1405 24.901 43.6345 24.901C43.6038 24.901 43.5885 24.855 43.5885 24.763C43.5885 24.671 43.6038 24.625 43.6345 24.625L44.8305 24.648C45.5052 24.6787 46.0495 24.694 46.4635 24.694C46.9695 24.694 47.5215 24.671 48.1195 24.625C48.3188 24.6097 48.5565 24.5943 48.8325 24.579C49.1238 24.5637 49.4458 24.556 49.7985 24.556C51.1325 24.556 52.1598 24.8167 52.8805 25.338C53.6165 25.8593 53.9845 26.5877 53.9845 27.523C53.9845 28.3663 53.7468 29.1253 53.2715 29.8C52.8115 30.4747 52.1905 31.0113 51.4085 31.41C52.6658 33.2653 53.7162 34.7143 54.5595 35.757C55.4028 36.7997 56.1465 37.5587 56.7905 38.034C57.4498 38.494 58.0938 38.724 58.7225 38.724ZM47.5905 31.387C47.9585 31.4483 48.4032 31.479 48.9245 31.479C49.9212 31.479 50.6342 31.2337 51.0635 30.743C51.4928 30.237 51.7075 29.432 51.7075 28.328C51.7075 27.086 51.4928 26.2197 51.0635 25.729C50.6495 25.2383 50.0438 24.993 49.2465 24.993C48.6485 24.993 48.2192 25.108 47.9585 25.338C47.7132 25.5527 47.5905 25.9513 47.5905 26.534V31.387ZM65.8653 39.276C64.4393 39.276 63.1666 38.9463 62.0473 38.287C60.9433 37.6123 60.0846 36.7077 59.4713 35.573C58.8733 34.423 58.5743 33.1733 58.5743 31.824C58.5743 30.2447 58.9729 28.8953 59.7703 27.776C60.5676 26.6413 61.5873 25.7903 62.8293 25.223C64.0866 24.6557 65.3669 24.372 66.6703 24.372C68.1269 24.372 69.4073 24.717 70.5113 25.407C71.6153 26.0817 72.4586 26.9787 73.0413 28.098C73.6393 29.2173 73.9383 30.4057 73.9383 31.663C73.9383 33.0583 73.5703 34.3387 72.8343 35.504C72.0983 36.6693 71.1093 37.5893 69.8673 38.264C68.6406 38.9387 67.3066 39.276 65.8653 39.276ZM66.6473 38.724C67.5673 38.724 68.3876 38.4787 69.1083 37.988C69.8443 37.482 70.4193 36.746 70.8333 35.78C71.2626 34.814 71.4773 33.664 71.4773 32.33C71.4773 30.9193 71.2396 29.6543 70.7643 28.535C70.3043 27.4157 69.6373 26.5417 68.7633 25.913C67.9046 25.2843 66.8926 24.97 65.7273 24.97C64.2399 24.97 63.0823 25.5067 62.2543 26.58C61.4416 27.638 61.0353 29.11 61.0353 30.996C61.0353 32.4527 61.2729 33.7713 61.7483 34.952C62.2389 36.1327 62.9059 37.0603 63.7493 37.735C64.6079 38.3943 65.5739 38.724 66.6473 38.724ZM85.8666 27.822C85.8666 27.8527 85.8206 27.8757 85.7286 27.891C85.652 27.9063 85.606 27.891 85.5906 27.845C85.2226 26.097 84.157 25.223 82.3936 25.223H81.4736C80.9216 25.223 80.5306 25.3227 80.3006 25.522C80.0706 25.7213 79.9556 26.051 79.9556 26.511V31.502H81.8416C83.559 31.502 84.4176 30.927 84.4176 29.777C84.4176 29.7463 84.4636 29.731 84.5556 29.731C84.6476 29.731 84.6936 29.7463 84.6936 29.777L84.6706 31.801C84.6706 32.2763 84.6783 32.629 84.6936 32.859L84.7166 34.055C84.7166 34.101 84.6706 34.124 84.5786 34.124C84.4866 34.124 84.4406 34.101 84.4406 34.055C84.4406 32.7517 83.559 32.1 81.7956 32.1H79.9556V37.045C79.9556 37.5357 80.017 37.896 80.1396 38.126C80.2623 38.3407 80.5 38.494 80.8526 38.586C81.2206 38.678 81.7803 38.724 82.5316 38.724C82.5623 38.724 82.5776 38.77 82.5776 38.862C82.5776 38.954 82.5623 39 82.5316 39C81.903 39 81.4123 38.9923 81.0596 38.977L78.8056 38.954L77.1266 38.977C76.8353 38.9923 76.429 39 75.9076 39C75.8616 39 75.8386 38.954 75.8386 38.862C75.8386 38.77 75.8616 38.724 75.9076 38.724C76.4596 38.724 76.8583 38.6857 77.1036 38.609C77.3643 38.5323 77.5406 38.3867 77.6326 38.172C77.7246 37.942 77.7706 37.597 77.7706 37.137V26.488C77.7706 26.028 77.7246 25.6907 77.6326 25.476C77.556 25.2613 77.395 25.1157 77.1496 25.039C76.9043 24.947 76.5286 24.901 76.0226 24.901C75.9766 24.901 75.9536 24.855 75.9536 24.763C75.9536 24.671 75.9766 24.625 76.0226 24.625H85.5906C85.744 24.625 85.8206 24.694 85.8206 24.832L85.8666 27.822ZM98.2079 35.412C98.2079 35.3813 98.2386 35.366 98.2999 35.366C98.3459 35.366 98.3843 35.3813 98.4149 35.412C98.4609 35.4273 98.4839 35.4427 98.4839 35.458C98.3306 36.6233 98.2539 37.689 98.2539 38.655C98.2539 38.7777 98.2309 38.8697 98.1849 38.931C98.1389 38.977 98.0469 39 97.9089 39H87.9269C87.8809 39 87.8579 38.954 87.8579 38.862C87.8579 38.77 87.8809 38.724 87.9269 38.724C88.4483 38.724 88.8239 38.6857 89.0539 38.609C89.2993 38.5323 89.4603 38.3867 89.5369 38.172C89.6289 37.942 89.6749 37.597 89.6749 37.137V26.488C89.6749 26.028 89.6289 25.6907 89.5369 25.476C89.4603 25.2613 89.2993 25.1157 89.0539 25.039C88.8086 24.947 88.4329 24.901 87.9269 24.901C87.8809 24.901 87.8579 24.855 87.8579 24.763C87.8579 24.671 87.8809 24.625 87.9269 24.625H97.4949C97.6483 24.625 97.7249 24.694 97.7249 24.832L97.7709 27.822C97.7709 27.8527 97.7249 27.8757 97.6329 27.891C97.5563 27.9063 97.5103 27.891 97.4949 27.845C97.1269 26.097 96.0613 25.223 94.2979 25.223H93.3779C92.8259 25.223 92.4349 25.3227 92.2049 25.522C91.9749 25.7213 91.8599 26.0587 91.8599 26.534V31.226H94.0679C95.7546 31.226 96.5979 30.6587 96.5979 29.524C96.5979 29.478 96.6363 29.455 96.7129 29.455C96.8049 29.455 96.8509 29.478 96.8509 29.524L96.8279 31.525L96.8509 32.606C96.8816 33.0967 96.8969 33.4953 96.8969 33.802C96.8969 33.8327 96.8509 33.848 96.7589 33.848C96.6669 33.848 96.6209 33.8327 96.6209 33.802C96.6209 32.4833 95.7623 31.824 94.0449 31.824H91.8599V37.045C91.8599 37.551 91.9519 37.9037 92.1359 38.103C92.3353 38.3023 92.6803 38.402 93.1709 38.402H94.2979C96.3526 38.402 97.6559 37.4053 98.2079 35.412ZM103.311 27.063C103.311 27.6303 103.449 28.1363 103.725 28.581C104.016 29.0103 104.369 29.386 104.783 29.708C105.212 30.03 105.787 30.4133 106.508 30.858C107.29 31.3487 107.903 31.7703 108.348 32.123C108.808 32.4757 109.191 32.9127 109.498 33.434C109.82 33.94 109.981 34.538 109.981 35.228C109.981 36.01 109.774 36.7077 109.36 37.321C108.961 37.9343 108.386 38.4173 107.635 38.77C106.899 39.1073 106.056 39.276 105.105 39.276C104.461 39.276 103.794 39.1917 103.104 39.023C102.429 38.8543 101.916 38.6473 101.563 38.402C101.425 38.31 101.348 38.1643 101.333 37.965L101.195 34.469V34.446C101.195 34.3847 101.233 34.354 101.31 34.354C101.387 34.3387 101.433 34.3617 101.448 34.423C101.954 35.6957 102.529 36.7383 103.173 37.551C103.832 38.3637 104.668 38.77 105.68 38.77C106.339 38.77 106.891 38.5937 107.336 38.241C107.781 37.873 108.003 37.2673 108.003 36.424C108.003 35.7493 107.85 35.159 107.543 34.653C107.252 34.147 106.884 33.7253 106.439 33.388C106.01 33.0507 105.419 32.6367 104.668 32.146C103.932 31.6707 103.357 31.272 102.943 30.95C102.529 30.6127 102.176 30.2063 101.885 29.731C101.594 29.2403 101.448 28.673 101.448 28.029C101.448 27.2317 101.67 26.557 102.115 26.005C102.56 25.453 103.135 25.0467 103.84 24.786C104.561 24.51 105.312 24.372 106.094 24.372C106.615 24.372 107.137 24.4257 107.658 24.533C108.179 24.625 108.616 24.7477 108.969 24.901C109.199 24.993 109.314 25.1387 109.314 25.338L109.383 28.466C109.383 28.512 109.337 28.5427 109.245 28.558C109.168 28.5733 109.122 28.558 109.107 28.512C108.8 27.5767 108.386 26.7333 107.865 25.982C107.359 25.2153 106.592 24.832 105.565 24.832C104.875 24.832 104.323 25.0313 103.909 25.43C103.51 25.8287 103.311 26.373 103.311 27.063ZM114.968 27.063C114.968 27.6303 115.106 28.1363 115.382 28.581C115.674 29.0103 116.026 29.386 116.44 29.708C116.87 30.03 117.445 30.4133 118.165 30.858C118.947 31.3487 119.561 31.7703 120.005 32.123C120.465 32.4757 120.849 32.9127 121.155 33.434C121.477 33.94 121.638 34.538 121.638 35.228C121.638 36.01 121.431 36.7077 121.017 37.321C120.619 37.9343 120.044 38.4173 119.292 38.77C118.556 39.1073 117.713 39.276 116.762 39.276C116.118 39.276 115.451 39.1917 114.761 39.023C114.087 38.8543 113.573 38.6473 113.22 38.402C113.082 38.31 113.006 38.1643 112.99 37.965L112.852 34.469V34.446C112.852 34.3847 112.891 34.354 112.967 34.354C113.044 34.3387 113.09 34.3617 113.105 34.423C113.611 35.6957 114.186 36.7383 114.83 37.551C115.49 38.3637 116.325 38.77 117.337 38.77C117.997 38.77 118.549 38.5937 118.993 38.241C119.438 37.873 119.66 37.2673 119.66 36.424C119.66 35.7493 119.507 35.159 119.2 34.653C118.909 34.147 118.541 33.7253 118.096 33.388C117.667 33.0507 117.077 32.6367 116.325 32.146C115.589 31.6707 115.014 31.272 114.6 30.95C114.186 30.6127 113.834 30.2063 113.542 29.731C113.251 29.2403 113.105 28.673 113.105 28.029C113.105 27.2317 113.328 26.557 113.772 26.005C114.217 25.453 114.792 25.0467 115.497 24.786C116.218 24.51 116.969 24.372 117.751 24.372C118.273 24.372 118.794 24.4257 119.315 24.533C119.837 24.625 120.274 24.7477 120.626 24.901C120.856 24.993 120.971 25.1387 120.971 25.338L121.04 28.466C121.04 28.512 120.994 28.5427 120.902 28.558C120.826 28.5733 120.78 28.558 120.764 28.512C120.458 27.5767 120.044 26.7333 119.522 25.982C119.016 25.2153 118.25 24.832 117.222 24.832C116.532 24.832 115.98 25.0313 115.566 25.43C115.168 25.8287 114.968 26.373 114.968 27.063ZM127.868 37.137C127.868 37.6123 127.906 37.9573 127.983 38.172C128.059 38.3867 128.213 38.5323 128.443 38.609C128.688 38.6857 129.071 38.724 129.593 38.724C129.639 38.724 129.662 38.77 129.662 38.862C129.662 38.954 129.639 39 129.593 39C129.102 39 128.711 38.9923 128.42 38.977L126.718 38.954L125.062 38.977C124.77 38.9923 124.372 39 123.866 39C123.82 39 123.797 38.954 123.797 38.862C123.797 38.77 123.82 38.724 123.866 38.724C124.387 38.724 124.763 38.6857 124.993 38.609C125.238 38.5323 125.407 38.3867 125.499 38.172C125.591 37.942 125.637 37.597 125.637 37.137V26.488C125.637 26.028 125.591 25.6907 125.499 25.476C125.407 25.2613 125.238 25.1157 124.993 25.039C124.763 24.947 124.387 24.901 123.866 24.901C123.82 24.901 123.797 24.855 123.797 24.763C123.797 24.671 123.82 24.625 123.866 24.625L125.062 24.648C125.736 24.6787 126.288 24.694 126.718 24.694C127.193 24.694 127.768 24.6787 128.443 24.648L129.593 24.625C129.639 24.625 129.662 24.671 129.662 24.763C129.662 24.855 129.639 24.901 129.593 24.901C129.087 24.901 128.711 24.947 128.466 25.039C128.236 25.131 128.075 25.292 127.983 25.522C127.906 25.7367 127.868 26.074 127.868 26.534V37.137ZM139.065 39.276C137.639 39.276 136.367 38.9463 135.247 38.287C134.143 37.6123 133.285 36.7077 132.671 35.573C132.073 34.423 131.774 33.1733 131.774 31.824C131.774 30.2447 132.173 28.8953 132.97 27.776C133.768 26.6413 134.787 25.7903 136.029 25.223C137.287 24.6557 138.567 24.372 139.87 24.372C141.327 24.372 142.607 24.717 143.711 25.407C144.815 26.0817 145.659 26.9787 146.241 28.098C146.839 29.2173 147.138 30.4057 147.138 31.663C147.138 33.0583 146.77 34.3387 146.034 35.504C145.298 36.6693 144.309 37.5893 143.067 38.264C141.841 38.9387 140.507 39.276 139.065 39.276ZM139.847 38.724C140.767 38.724 141.588 38.4787 142.308 37.988C143.044 37.482 143.619 36.746 144.033 35.78C144.463 34.814 144.677 33.664 144.677 32.33C144.677 30.9193 144.44 29.6543 143.964 28.535C143.504 27.4157 142.837 26.5417 141.963 25.913C141.105 25.2843 140.093 24.97 138.927 24.97C137.44 24.97 136.282 25.5067 135.454 26.58C134.642 27.638 134.235 29.11 134.235 30.996C134.235 32.4527 134.473 33.7713 134.948 34.952C135.439 36.1327 136.106 37.0603 136.949 37.735C137.808 38.3943 138.774 38.724 139.847 38.724ZM164.748 24.625C164.779 24.625 164.794 24.671 164.794 24.763C164.794 24.855 164.779 24.901 164.748 24.901C164.135 24.901 163.659 25.1233 163.322 25.568C162.985 25.9973 162.816 26.6183 162.816 27.431V39.322C162.816 39.368 162.778 39.3987 162.701 39.414C162.624 39.4293 162.571 39.4217 162.54 39.391L151.753 26.856V36.217C151.753 37.0297 151.914 37.6507 152.236 38.08C152.558 38.5093 153.026 38.724 153.639 38.724C153.67 38.724 153.685 38.77 153.685 38.862C153.685 38.954 153.67 39 153.639 39C153.225 39 152.911 38.9923 152.696 38.977L151.477 38.954L150.12 38.977C149.875 38.9923 149.522 39 149.062 39C149.016 39 148.993 38.954 148.993 38.862C148.993 38.77 149.016 38.724 149.062 38.724C149.721 38.724 150.227 38.5093 150.58 38.08C150.948 37.6507 151.132 37.0297 151.132 36.217V26.143C150.703 25.683 150.312 25.361 149.959 25.177C149.622 24.993 149.269 24.901 148.901 24.901C148.87 24.901 148.855 24.855 148.855 24.763C148.855 24.671 148.87 24.625 148.901 24.625L149.821 24.648C150.02 24.6633 150.304 24.671 150.672 24.671L152.144 24.648C152.328 24.6327 152.55 24.625 152.811 24.625C152.934 24.625 153.026 24.6557 153.087 24.717C153.148 24.7783 153.24 24.901 153.363 25.085L153.915 25.821L162.195 35.573V27.431C162.195 26.6183 162.034 25.9973 161.712 25.568C161.39 25.1233 160.93 24.901 160.332 24.901C160.301 24.901 160.286 24.855 160.286 24.763C160.286 24.671 160.301 24.625 160.332 24.625L161.275 24.648C161.766 24.6787 162.172 24.694 162.494 24.694C162.801 24.694 163.215 24.6787 163.736 24.648L164.748 24.625ZM181.456 38.724C181.532 38.724 181.571 38.77 181.571 38.862C181.571 38.954 181.532 39 181.456 39C181.164 39 180.697 38.9847 180.053 38.954C179.409 38.9233 178.941 38.908 178.65 38.908C178.266 38.908 177.814 38.9233 177.293 38.954C176.771 38.9847 176.365 39 176.074 39C176.012 39 175.982 38.954 175.982 38.862C175.982 38.77 176.012 38.724 176.074 38.724C176.518 38.724 176.84 38.678 177.04 38.586C177.254 38.4787 177.362 38.31 177.362 38.08C177.362 37.85 177.231 37.459 176.971 36.907L175.223 33.365H169.657L168.553 35.849C168.353 36.309 168.254 36.723 168.254 37.091C168.254 37.6277 168.445 38.034 168.829 38.31C169.212 38.586 169.749 38.724 170.439 38.724C170.515 38.724 170.554 38.77 170.554 38.862C170.554 38.954 170.515 39 170.439 39C170.163 39 169.764 38.9847 169.243 38.954C168.66 38.9233 168.154 38.908 167.725 38.908C167.311 38.908 166.828 38.9233 166.276 38.954C165.785 38.9847 165.379 39 165.057 39C164.98 39 164.942 38.954 164.942 38.862C164.942 38.77 164.98 38.724 165.057 38.724C165.486 38.724 165.846 38.6397 166.138 38.471C166.429 38.3023 166.713 38.0033 166.989 37.574C167.265 37.1293 167.594 36.4777 167.978 35.619L172.923 24.487C172.953 24.441 173.022 24.418 173.13 24.418C173.237 24.418 173.298 24.441 173.314 24.487L178.949 35.849C179.485 36.953 179.93 37.712 180.283 38.126C180.651 38.5247 181.042 38.724 181.456 38.724ZM169.91 32.79H174.947L172.302 27.431L169.91 32.79ZM186.146 37.045C186.146 37.459 186.177 37.758 186.238 37.942C186.315 38.126 186.453 38.2487 186.652 38.31C186.851 38.3713 187.173 38.402 187.618 38.402H188.998C190.087 38.402 191.007 38.103 191.758 37.505C192.509 36.8917 193.008 36.0713 193.253 35.044C193.268 34.998 193.314 34.9827 193.391 34.998C193.468 34.998 193.506 35.021 193.506 35.067C193.368 36.5083 193.299 37.7043 193.299 38.655C193.299 38.7777 193.276 38.8697 193.23 38.931C193.184 38.977 193.092 39 192.954 39H182.19C182.159 39 182.144 38.954 182.144 38.862C182.144 38.77 182.159 38.724 182.19 38.724C182.711 38.724 183.087 38.6857 183.317 38.609C183.562 38.5323 183.723 38.3867 183.8 38.172C183.892 37.942 183.938 37.597 183.938 37.137V26.488C183.938 26.028 183.892 25.6907 183.8 25.476C183.723 25.2613 183.562 25.1157 183.317 25.039C183.072 24.947 182.696 24.901 182.19 24.901C182.159 24.901 182.144 24.855 182.144 24.763C182.144 24.671 182.159 24.625 182.19 24.625L183.363 24.648C184.038 24.6787 184.59 24.694 185.019 24.694C185.479 24.694 186.046 24.6787 186.721 24.648L187.871 24.625C187.917 24.625 187.94 24.671 187.94 24.763C187.94 24.855 187.917 24.901 187.871 24.901C187.365 24.901 186.989 24.947 186.744 25.039C186.514 25.1157 186.353 25.269 186.261 25.499C186.184 25.7137 186.146 26.051 186.146 26.511V37.045Z" fill="white"/>
</svg>
